<svg width="166" height="74" viewBox="0 0 166 74" fill="none" xmlns="http://www.w3.org/2000/svg">
<g clip-path="url(#clip0_125_124)">
<path fill-rule="evenodd" clip-rule="evenodd" d="M61.3605 72.6027H37.9586L29.729 27.6525L48.0383 3.0094e-06L61.3605 72.6027ZM58.2137 40.9101C58.2091 41.2246 58.1808 41.588 58.148 42.0097C58.0221 43.6291 57.8292 46.1087 58.6531 49.9857C58.6531 49.9857 61.8143 73.5353 85.6286 74C92.4805 73.5277 95.3702 72.215 98.8951 70.4769C112.125 63.9591 114.328 49.3516 114.328 49.3516H101.881C94.6797 65.7144 80.6906 60.2245 80.6906 60.2245L88.5601 22.9917C103.682 23.4074 104.247 37.7509 104.247 37.7509H116.9C116.9 37.7509 117.789 22.6833 103.201 13.7442C100.213 11.9132 95.2866 10.6254 90.4639 10.5119C90.4639 10.5119 63.528 8.81061 58.2137 40.9101ZM166 14.5529L163.531 26.1539H142.34L139.871 37.7532H161.113L158.697 49.3534H137.453L135.036 60.953H156.279L153.81 72.5001H111.017L123.206 14.5529H166ZM24.4824 35.6279L31.3745 72.6027H0L24.4824 35.6279ZM159.851 68.8275C159.851 69.3594 159.46 69.3905 159.02 69.3905H158.398V68.3226H159.105C159.466 68.3226 159.851 68.4022 159.851 68.8275ZM157.88 71.3266H158.398V69.8328H158.997L159.898 71.3266H160.478L159.506 69.8088C160.007 69.7462 160.393 69.4772 160.393 68.8621C160.393 68.1811 159.993 67.881 159.183 67.881H157.88V71.3266ZM161.429 69.5958C161.429 71.034 160.368 72.0932 159.027 72.0932C157.669 72.0932 156.609 71.034 156.609 69.5958C156.609 68.1811 157.669 67.1144 159.027 67.1144C160.368 67.1144 161.429 68.1811 161.429 69.5958ZM159.027 66.6163C157.394 66.6163 156.012 67.881 156.012 69.5958C156.012 71.3266 157.394 72.5912 159.027 72.5912C160.644 72.5912 162.025 71.3266 162.025 69.5958C162.025 67.881 160.644 66.6163 159.027 66.6163Z" fill="#D40029"/>
</g>
<defs>
<clipPath id="clip0_125_124">
<rect width="166" height="74" fill="white"/>
</clipPath>
</defs>
</svg>
